<svg xmlns="http://www.w3.org/2000/svg" viewBox="0 0 100 100">
  <defs>
    <linearGradient id="g" x1="0" y1="0" x2="1" y2="1">
      <stop offset="0" stop-color="#2f6bff"/>
      <stop offset="1" stop-color="#ffc22e"/>
    </linearGradient>
  </defs>
  <rect width="100" height="100" rx="22" fill="url(#g)"/>

  <path d="M4 34V12A8 8 0 0 1 12 4H34" stroke="#fff" stroke-width="7" stroke-linecap="round" fill="none"/>
  <path d="M66 4H88A8 8 0 0 1 96 12V34" stroke="#fff" stroke-width="7" stroke-linecap="round" fill="none"/>
  <path d="M4 66V88A8 8 0 0 0 12 96H34" stroke="#fff" stroke-width="7" stroke-linecap="round" fill="none"/>

  <rect x="14" y="14" width="24" height="24" rx="6" stroke="#fff" stroke-width="6" fill="none"/>
  <rect x="21.5" y="21.5" width="9" height="9" rx="2.5" stroke="#fff" stroke-width="5.5" fill="none"/>
  <rect x="62" y="14" width="24" height="24" rx="6" stroke="#fff" stroke-width="6" fill="none"/>
  <rect x="69.5" y="21.5" width="9" height="9" rx="2.5" stroke="#fff" stroke-width="5.5" fill="none"/>
  <rect x="14" y="62" width="24" height="24" rx="6" stroke="#fff" stroke-width="6" fill="none"/>
  <rect x="21.5" y="69.5" width="9" height="9" rx="2.5" stroke="#fff" stroke-width="5.5" fill="none"/>

  <circle cx="58" cy="56" r="6" fill="#fff"/>
  <circle cx="70" cy="52" r="5" fill="#fff"/>

  <circle cx="76" cy="76" r="21" fill="#17c0a4" stroke="#fff" stroke-width="4"/>
  <path d="M67 77l7 7 16-18" stroke="#fff" stroke-width="7" stroke-linecap="round" stroke-linejoin="round" fill="none"/>
</svg>
